# xmcd
#
# Track frame offsets:
# 150
# 15875
# 19749
# 24362
# 30701
# 36682
# 43579
# 53412
# 61307
# 67111
# 89308
# 95249
# 102728
#
# Disc length: 1547 seconds
#
#
# Revision: 0
# Processed by: cddbd v1.5.2PL0 Copyright (c) Steve Scherf et al.
# Submitted via: FreeRIP 2.943 
#
DISCID=a906090d
DTITLE=robotosaurus - manhater
DYEAR=2008
DGENRE=other
TTITLE0=muddy water is muddy water
TTITLE1=party sick
TTITLE2=track marks
TTITLE3=sleep
TTITLE4=black hate devils
TTITLE5=never alone in hell
TTITLE6=golden bars
TTITLE7=vision
TTITLE8=black eyes
TTITLE9=desperate love
TTITLE10=double edged sword
TTITLE11=internal bleeding
TTITLE12=mankind
EXTD=
EXTT0=
EXTT1=
EXTT2=
EXTT3=
EXTT4=
EXTT5=
EXTT6=
EXTT7=
EXTT8=
EXTT9=
EXTT10=
EXTT11=
EXTT12=
PLAYORDER=
